<?xml version="1.0" standalone="no"?><!DOCTYPE svg PUBLIC "-//W3C//DTD SVG 1.1//EN" "http://www.w3.org/Graphics/SVG/1.1/DTD/svg11.dtd"><svg t="1581585474154" class="icon" viewBox="0 0 1024 1024" version="1.1" xmlns="http://www.w3.org/2000/svg" p-id="3421" width="32" height="32" xmlns:xlink="http://www.w3.org/1999/xlink"><defs><style type="text/css"></style></defs><path d="M266.666667 949.333333a245.333333 32 0 1 0 490.666666 0 245.333333 32 0 1 0-490.666666 0Z" fill="#45413C" opacity=".15" p-id="3422"></path><path d="M795.733333 466.56V337.066667A154.026667 154.026667 0 0 0 512 259.626667a154.026667 154.026667 0 0 0-283.306667 77.44v129.493333c-68.48 39.893333-110.933333 94.08-110.933333 154.026667C117.333333 743.253333 293.973333 842.666667 512 842.666667s394.666667-99.413333 394.666667-222.08c0-59.946667-42.453333-114.133333-110.933334-154.026667z" fill="#6DD627" p-id="3423"></path><path d="M382.506667 250.666667a152.746667 152.746667 0 0 1 105.386666 42.666666 34.986667 34.986667 0 0 0 48.213334 0 153.813333 153.813333 0 0 1 259.2 106.666667V337.066667A154.026667 154.026667 0 0 0 512 259.626667a154.026667 154.026667 0 0 0-283.306667 77.44v61.653333a154.026667 154.026667 0 0 1 153.813334-148.053333z" fill="#9CEB60" p-id="3424"></path><path d="M821.333333 567.68a38.826667 38.826667 0 1 1-38.826666-38.826667 38.613333 38.613333 0 0 1 38.826666 38.826667zM280.32 567.68a38.826667 38.826667 0 1 1-38.826667-38.826667 38.826667 38.826667 0 0 1 38.826667 38.826667z" fill="#C8FFA1" p-id="3425"></path><path d="M437.973333 571.306667a71.893333 71.893333 0 0 1 49.28 49.28M586.026667 571.306667a71.893333 71.893333 0 0 0-49.28 49.28" fill="#FFFFFF" p-id="3426"></path><path d="M384 250.666667a92.586667 92.586667 0 0 0-92.586667 92.586666v49.28a92.586667 92.586667 0 0 0 185.173334 0v-49.28A92.586667 92.586667 0 0 0 384 250.666667z" fill="#FFFFFF" p-id="3427"></path><path d="M384 250.666667a92.586667 92.586667 0 0 0-92.586667 92.586666v35.84a92.586667 92.586667 0 0 1 185.173334 0v-35.84A92.586667 92.586667 0 0 0 384 250.666667z" fill="#F0F0F0" p-id="3428"></path><path d="M384 382.506667m-32 0a32 32 0 1 0 64 0 32 32 0 1 0-64 0Z" fill="#45413C" p-id="3429"></path><path d="M640 250.666667a92.586667 92.586667 0 0 1 92.586667 92.586666v49.28a92.586667 92.586667 0 0 1-185.173334 0v-49.28A92.586667 92.586667 0 0 1 640 250.666667z" fill="#FFFFFF" p-id="3430"></path><path d="M640 250.666667a92.586667 92.586667 0 0 1 92.586667 92.586666v35.84a92.586667 92.586667 0 0 0-185.173334 0v-35.84A92.586667 92.586667 0 0 1 640 250.666667z" fill="#F0F0F0" p-id="3431"></path><path d="M640 382.506667m-32 0a32 32 0 1 0 64 0 32 32 0 1 0-64 0Z" fill="#45413C" p-id="3432"></path></svg>