<?xml version="1.0" standalone="no"?><!DOCTYPE svg PUBLIC "-//W3C//DTD SVG 1.1//EN" "http://www.w3.org/Graphics/SVG/1.1/DTD/svg11.dtd"><svg t="1581587520340" class="icon" viewBox="0 0 1024 1024" version="1.1" xmlns="http://www.w3.org/2000/svg" p-id="10308" width="32" height="32" xmlns:xlink="http://www.w3.org/1999/xlink"><defs><style type="text/css"></style></defs><path d="M764.131556 156.558222a273.066667 273.066667 0 0 0-479.914667-9.784889C138.262756 150.391467 20.980622 268.174222 17.976889 414.151111a262.599111 262.599111 0 0 0 186.140444 261.233778l32.995556 204.8a68.266667 68.266667 0 0 0 25.258667 43.008 409.6 409.6 0 0 0 491.52 10.012444 68.266667 68.266667 0 0 0 27.079111-41.870222l41.187555-203.434667a262.599111 262.599111 0 0 0 196.835556-253.496888c2.8672-145.8176-109.340444-268.151467-254.862222-277.845334zM508.131556 942.08a380.017778 380.017778 0 0 1-203.434667-72.362667l-6.144-38.456889c44.145778 29.127111 129.934222 76.686222 218.453333 76.686223 71.907556 0 149.731556-31.857778 203.207111-58.936889l-5.916444 28.899555a380.017778 380.017778 0 0 1-206.165333 64.170667z m256.682666-313.344l-26.851555 132.209778c-32.312889 19.797333-136.533333 78.734222-221.184 78.734222-100.124444 0-204.8-82.830222-206.165334-83.512889a34.133333 34.133333 0 0 0-25.258666-7.054222l-20.935111-130.616889a196.380444 196.380444 0 0 1-177.948445-202.752A203.434667 203.434667 0 0 1 326.997333 218.453333a204.8 204.8 0 0 1 391.623111 7.964445 203.434667 203.434667 0 0 1 232.334223 206.848 196.380444 196.380444 0 0 1-185.912889 195.242666l-0.227556 0.227556z" fill="#000000" p-id="10309"></path><path d="M312.206222 269.425778v-1.365334c-136.533333 0-170.666667 108.771556-170.666666 167.936 0 18.887111 15.018667 28.444444 33.905777 28.444445 18.659556 0 33.905778-9.784889 34.133334-28.444445a93.752889 93.752889 0 0 1 102.4-97.166222c18.796089 0 34.133333-15.109689 34.360889-33.905778a32.312889 32.312889 0 0 0-34.133334-35.498666z" fill="#000000" p-id="10310"></path></svg>