<?xml version="1.0" standalone="no"?><!DOCTYPE svg PUBLIC "-//W3C//DTD SVG 1.1//EN" "http://www.w3.org/Graphics/SVG/1.1/DTD/svg11.dtd"><svg t="1581585656326" class="icon" viewBox="0 0 1024 1024" version="1.1" xmlns="http://www.w3.org/2000/svg" p-id="6085" width="24" height="24" xmlns:xlink="http://www.w3.org/1999/xlink"><defs><style type="text/css"></style></defs><path d="M0 511.148087c0 281.983361 229.164725 511.148087 511.148087 511.148086s511.148087-229.164725 511.148086-511.148086-229.164725-511.148087-511.148086-511.148087-511.148087 229.164725-511.148087 511.148087z m0 0" fill="#FFD96B" p-id="6086"></path><path d="M872.359401 149.936772l-722.422629 722.422629c199.347754 199.347754 523.074875 199.347754 722.422629 0s200.199667-522.222962 0-722.422629z m0 0" fill="#FDC223" p-id="6087"></path><path d="M139.71381 511.148087c0 205.311148 166.123128 371.434276 371.434277 371.434276s371.434276-166.123128 371.434276-371.434276S716.459235 139.71381 511.148087 139.71381 139.71381 305.836938 139.71381 511.148087z m0 0" fill="#F9AB10" p-id="6088"></path><path d="M765.870216 241.091514c-145.677205-137.15807-374.84193-135.454243-517.111481 6.815308-142.269551 142.269551-144.825291 372.28619-6.815307 517.111481l523.926788-523.926789z m0 0" fill="#F9B721" p-id="6089"></path><path d="M478.775374 615.933444H387.620632v-54.522462h91.154742v-29.816972H387.620632V477.923461h64.745425l-76.672213-155.900166H451.514143L500.925125 426.808652c5.963394 12.778702 11.074875 24.705491 13.630615 34.928453 3.407654-11.074875 7.667221-22.14975 13.630616-34.928453l50.262895-104.785357h75.8203L575.893511 477.923461h65.597338v54.522462H548.63228v29.816972h92.858569v54.522463H548.63228v115.860233h-69.004992l-0.851914-116.712147z m0 0" fill="#D3830D" p-id="6090"></path><path d="M580.153078 468.552413L432.772047 615.933444h46.855241v115.860233h69.004992V615.933444h92.858569v-54.522462H548.63228v-29.816972h92.858569V477.923461h-65.597338l4.259567-9.371048z m0 0" fill="#BF790A" p-id="6091"></path></svg>