<?xml version="1.0" standalone="no"?><!DOCTYPE svg PUBLIC "-//W3C//DTD SVG 1.1//EN" "http://www.w3.org/Graphics/SVG/1.1/DTD/svg11.dtd"><svg t="1581588639094" class="icon" viewBox="0 0 1024 1024" version="1.1" xmlns="http://www.w3.org/2000/svg" p-id="12119" width="32" height="32" xmlns:xlink="http://www.w3.org/1999/xlink"><defs><style type="text/css"></style></defs><path d="M25.6 761.6V262.4c0-25.6 25.6-51.2 51.2-51.2h787.199c25.6 0 51.2 25.6 51.2 51.2v499.2c0 25.6-25.6 51.2-51.2 51.2H76.8c-31.999 0-51.2-25.6-51.2-51.2z m857.6-499.2c0-6.399-6.4-19.2-19.2-19.2H76.801c-6.399 0-19.2 6.4-19.2 19.2v499.2c0 6.399 6.4 19.2 19.2 19.2H864c6.399 0 19.2-6.4 19.2-19.2V262.4z" fill="#87b774" p-id="12120"></path><path d="M332.8 281.6l172.8 460.8H127.999c-19.199 0-31.999-12.8-32-32V313.6c0-19.199 12.8-31.999 32-32h204.799z" fill="#87b774" p-id="12121"></path><path d="M710.4 569.6l-172.8-44.799v89.6l-256-160L460.8 505.6V403.2z m288-134.4v153.601c0 6.399-6.4 19.2-19.2 19.2h-31.999c-6.399 0-19.2-6.4-19.2-19.2V435.2c0-6.399 6.4-19.2 19.2-19.2H979.2c12.8 0 19.2 6.4 19.2 19.2z" fill="#87b774" p-id="12122"></path></svg>