<?xml version="1.0" standalone="no"?><!DOCTYPE svg PUBLIC "-//W3C//DTD SVG 1.1//EN" "http://www.w3.org/Graphics/SVG/1.1/DTD/svg11.dtd"><svg t="1581586215746" class="icon" viewBox="0 0 1024 1024" version="1.1" xmlns="http://www.w3.org/2000/svg" p-id="6618" width="12" height="12" xmlns:xlink="http://www.w3.org/1999/xlink"><defs><style type="text/css"></style></defs><path d="M837.94955 157.691304S874.256483 123.010055 887.442582 88.509437c13.1861-34.500617 18.605045-60.872817 26.552832-67.917445 7.947786-7.044629 11.560416-11.741048 25.649673-9.392839 14.089257 2.34821 35.403775 24.385253 39.738931 62.498501 4.335156 37.932616 14.089257 113.978479-47.686717 207.72623-0.180632-0.180632-37.21009-73.155759-93.747751-123.73258z" fill="#9748CB" p-id="6619"></path><path d="M932.419827 96.457223s5.238314-14.992415 5.238314-30.887987 8.850944-25.649674 16.79873-17.701887c7.947786 7.947786 14.992415 29.081672 14.089257 48.589874-0.903158 19.508203 1.806315 48.951138-6.141471 61.234081-7.947786 12.102311-18.605045 12.102311-29.98483 9.573469-11.560416-2.709473-22.037044-25.649674-15.895572-40.642088 6.141471-15.173046 12.644205-17.521256 15.895572-30.165462zM4.335156 516.606103s17.159993-205.919915 125.538896-309.602399S341.935438 34.500617 561.041454 21.133886c219.106015-13.366731 355.844064 208.268125 376.97795 247.826424 21.133886 39.5583 84.174281 156.788146 84.174281 247.826425s0.722526 281.785147-128.970894 366.681954c-129.512789 84.896807-254.50979 134.389839-344.103017 129.512789-89.593226-4.696419-315.74387-23.482096-417.078144-164.916564C30.887987 706.630446 4.335156 661.291939 4.335156 516.606103z" fill="#C876FE" p-id="6620"></path><path d="M531.237255 128.067737c29.262304-8.309049 82.006703-15.353678 138.183101 15.714941 5.599577 3.070736 11.741048-2.890104 8.670313-8.489681-19.327571-35.403775-69.543129-99.889222-152.814253-17.882519-4.696419 4.515788-0.361263 12.463574 5.960839 10.657259z" fill="#DCA4FF" p-id="6621"></path><path d="M327.123655 919.233727c-53.105662-54.731346-123.732581-123.732581-116.687952-360.540483 7.044629-236.807903 63.762921-320.620921 104.224378-383.480684 22.037044-34.319986 98.624802-104.946904 192.733816-149.382255-182.979714 20.772623-278.353149 86.341859-377.519845 181.173399C21.495149 310.686188 4.335156 516.606103 4.335156 516.606103c0 144.685835 26.552831 189.843711 127.887105 331.27818 101.334274 141.434468 327.484918 160.220145 417.078145 164.916564 0 0-169.071088-38.835774-222.176751-93.56712z" fill="#B163E5" p-id="6622"></path><path d="M66.472394 240.601164c50.39619 57.440818 62.679132 64.485447 80.381019 63.58229 13.1861-0.722526 50.215558-7.767155 82.187335-29.442935 14.631152-30.165461 13.1861-63.762921 11.741048-75.142706-1.806315-15.353678-9.392838-26.552831-38.293879-34.139355-68.820603-20.050097-120.661845-116.687952-128.248369-135.473628-7.767155-18.966308-17.159993-17.701887-28.359146-18.966308-10.295996 0.903158-11.741048 1.264421-18.785676 9.392838-1.264421 1.445052-2.890104 4.877051-4.696419 9.754101 0 0.180632-6.322103 152.994884 44.074087 210.435703z" fill="#9748CB" p-id="6623"></path><path d="M20.591992 194.901394c22.940201 93.025225 87.425648 133.847945 88.8707 134.931734 12.282942 9.031575 60.150291 7.586523 97.721644-26.010937 9.754101-8.670312 16.618098-18.785676 21.856412-29.081672-31.971776 21.675781-69.001235 28.720409-82.187335 29.442935-17.701887 0.903158-29.98483-6.141471-80.381019-63.58229C16.076204 183.160346 22.398307 30.346093 22.398307 30.346093c-8.670312 24.02399-20.953255 87.245017-1.806315 164.555301z" fill="#8437B7" p-id="6624"></path><path d="M61.23408 162.748986s8.309049 29.081672 17.340625 37.932616c9.031575 8.850944 23.301464 15.895572 41.725877 9.212206 18.605045-6.683366 22.037044-16.437467 25.649674-29.623566 3.61263-13.1861-3.61263-24.746516-20.050097-42.448404-16.256835-17.701887-37.029458-38.835774-47.506086-57.440818-10.115364-18.424413-17.159993-29.804198-23.301464-24.565885-6.322103 5.418945-7.947786 63.58229 6.141471 106.933851z" fill="#C876FE" p-id="6625"></path><path d="M393.596049 687.483507c19.688834-11.560416 32.152408 4.154525 45.338507 13.1861 41.364615 28.539778 83.271124 55.453872 135.112366 61.053448 75.142706 7.947786 135.65426-14.089257 176.838243-81.103545 8.489681-13.727994 15.534309-42.809667 35.403775-32.152408 22.398307 11.921679-1.264421 32.513671-5.96084 49.131769-0.180632 0.903158-0.541895 1.986947-0.903157 2.890104-25.107779 50.034927-65.749868 84.354913-117.952373 100.069854-62.498501 18.966308-126.261422 19.327571-187.676133-9.031576-29.98483-13.908626-53.105662-35.765038-72.071971-61.956606-8.850944-12.282942-15.534309-26.010937-8.128417-42.08714z" fill="#4D1671" p-id="6626"></path><path d="M393.596049 687.483507c8.670312 55.092609 72.975128 105.488799 142.156994 114.881637 101.695537 13.727994 182.618451-20.050097 243.6719-101.876169-0.361263 36.848827-28.539778 56.537661-52.021874 76.587758-87.786911 74.781443-244.575057 63.943553-321.885341-21.67578-16.979361-18.785676-36.306932-40.280826-11.921679-67.917446z" fill="#B163E5" p-id="6627"></path><path d="M677.729406 415.452461s-16.79873 38.655142 0 60.692185c16.79873 22.037044 48.589875 37.029458 98.986064 25.649674 50.39619-11.560416 102.418063-96.276592 108.740166-113.075322 6.141471-16.79873 5.238314-37.932616-14.992415-38.835773-20.41136-0.903158-139.628153 29.98483-139.628153 29.984829L677.729406 415.452461zM198.514024 385.106368s38.47451 46.78356 60.511554 72.433233c22.037044 25.649674 55.995766 52.202505 80.200388 56.537661 24.02399 4.335156 118.85553 28.359146 111.269007-77.671547l-125.719528-62.859763-85.077438-5.238314h-27.455989l-13.727994 16.79873z" fill="#B163E5" p-id="6628"></path><path d="M479.937908 450.856236s-53.466925-158.052567-278.172517-86.883754c-4.696419 1.445052-4.154525 8.309049 0.722526 8.850944 32.513671 3.973893 99.166696 13.727994 168.890457 34.500617-13.908626 9.57347-23.301464 26.733463-23.301464 46.602928 0 30.165461 21.314518 54.370083 47.325454 54.370083 26.191568 0 47.325454-24.385253 47.325454-54.370083 0-8.128418-1.625684-15.895572-4.515788-22.759569 14.269889 5.96084 28.359146 12.463574 41.725878 19.688834zM755.942847 393.054154c41.545246-16.437467 88.509437-32.152408 129.151526-39.197036 6.322103-1.083789 6.863997-10.115364 0.541894-11.92168-48.589875-13.908626-160.581408-27.63662-243.310636 101.695537 0 0 20.953255-10.83789 52.563767-24.927147-3.251367 7.405892-5.238314 15.534309-5.238313 24.385253 0 30.165461 21.314518 54.370083 47.325454 54.370083 26.191568 0 47.325454-24.385253 47.325454-54.370083 0.361263-22.578938-11.560416-41.725878-28.359146-50.034927z" fill="#4D1671" p-id="6629"></path></svg>