<?xml version="1.0" standalone="no"?><!DOCTYPE svg PUBLIC "-//W3C//DTD SVG 1.1//EN" "http://www.w3.org/Graphics/SVG/1.1/DTD/svg11.dtd"><svg t="1581588174259" class="icon" viewBox="0 0 1024 1024" version="1.1" xmlns="http://www.w3.org/2000/svg" p-id="11233" width="16" height="16" xmlns:xlink="http://www.w3.org/1999/xlink"><defs><style type="text/css"></style></defs><path d="M787.692308 920.812308H236.307692c-39.384615 0-70.892308-31.507692-70.892307-70.892308v-354.461538c0-17.329231 14.178462-31.507692 31.507692-31.507693h630.153846c17.329231 0 31.507692 14.178462 31.507692 31.507693v354.461538c0 38.596923-31.507692 70.892308-70.892307 70.892308z m-559.261539-393.846154v322.953846c0 4.726154 3.150769 7.876923 7.876923 7.876923h551.384616c4.726154 0 7.876923-3.150769 7.876923-7.876923v-322.953846H228.430769z" fill="#7F7F7F" p-id="11234"></path><path d="M590.564431 495.245785v393.846153h-157.538462v-393.846153z" fill="#BFBFBF" p-id="11235"></path><path d="M590.769231 920.812308H433.230769c-17.329231 0-31.507692-14.178462-31.507692-31.507693v-393.846153c0-17.329231 14.178462-31.507692 31.507692-31.507693h157.538462c17.329231 0 31.507692 14.178462 31.507692 31.507693v393.846153c0 17.329231-14.178462 31.507692-31.507692 31.507693z m-126.030769-63.015385h94.523076v-330.830769H464.738462v330.830769z" fill="#7F7F7F" p-id="11236"></path><path d="M866.461538 526.966154H157.538462c-39.384615 0-70.892308-31.507692-70.892308-70.892308v-78.769231c0-39.384615 31.507692-70.892308 70.892308-70.892307h708.923076c39.384615 0 70.892308 31.507692 70.892308 70.892307v78.769231c0 38.596923-31.507692 70.892308-70.892308 70.892308z m-708.923076-157.538462c-4.726154 0-7.876923 3.150769-7.876924 7.876923v78.769231c0 4.726154 3.150769 7.876923 7.876924 7.876923h708.923076c4.726154 0 7.876923-3.150769 7.876924-7.876923v-78.769231c0-4.726154-3.150769-7.876923-7.876924-7.876923H157.538462z" fill="#7F7F7F" p-id="11237"></path><path d="M590.769231 369.427692H433.230769c-17.329231 0-31.507692-14.178462-31.507692-31.507692v-7.876923c0-56.713846 45.686154-102.4 102.4-102.4h15.753846c56.713846 0 102.4 45.686154 102.4 102.4v7.876923c0 17.329231-14.178462 31.507692-31.507692 31.507692z m-118.153846-63.015384h78.76923c-7.089231-9.452308-18.904615-15.753846-31.507692-15.753846h-15.753846c-12.603077 0-24.418462 6.301538-31.507692 15.753846z" fill="#7F7F7F" p-id="11238"></path><path d="M445.046154 290.658462l-187.470769-149.661539c-25.993846-17.329231-60.652308 1.575385-60.652308 33.083077v163.052308h236.307692v-7.876923c0-14.178462 4.726154-27.569231 11.815385-38.596923z" fill="#BFBFBF" p-id="11239"></path><path d="M433.230769 369.427692H196.923077c-17.329231 0-31.507692-14.178462-31.507692-31.507692V174.08c0-25.993846 14.178462-49.624615 37.021538-62.227692 22.843077-12.603077 50.412308-11.027692 72.467692 3.150769 0.787692 0.787692 1.575385 0.787692 2.363077 1.575385l187.47077 149.661538c12.603077 10.24 15.753846 28.356923 6.301538 41.747692-3.938462 6.301538-6.301538 14.178462-6.301538 22.055385v7.876923c0 17.329231-14.178462 31.507692-31.507693 31.507692z m-204.8-63.015384h175.655385c0.787692-2.363077 0.787692-3.938462 1.575384-6.301539L239.458462 166.990769c-3.150769-1.575385-5.513846-0.787692-7.089231 0-1.575385 0.787692-3.938462 3.150769-3.938462 7.089231v132.332308z" fill="#7F7F7F" p-id="11240"></path><path d="M766.424615 140.996923l-187.470769 149.661539c7.089231 11.027692 11.815385 24.418462 11.815385 39.384615v7.876923h236.307692V174.08c0-30.72-34.658462-49.624615-60.652308-33.083077z" fill="#BFBFBF" p-id="11241"></path><path d="M827.076923 369.427692H590.769231c-17.329231 0-31.507692-14.178462-31.507693-31.507692v-7.876923c0-7.876923-2.363077-14.966154-6.301538-22.055385-9.452308-13.390769-6.301538-31.507692 6.301538-41.747692l187.47077-149.661538c0.787692-0.787692 1.575385-1.575385 2.363077-1.575385 22.055385-14.178462 49.624615-15.753846 72.467692-3.150769 22.843077 12.603077 37.021538 36.233846 37.021538 62.227692v163.052308c0 18.116923-14.178462 32.295385-31.507692 32.295384z m-207.163077-63.015384H795.569231V174.08c0-3.938462-2.363077-6.301538-3.938462-7.089231-1.575385-0.787692-3.938462-1.575385-7.089231 0L617.550769 300.110769c0.787692 1.575385 1.575385 3.938462 2.363077 6.301539z" fill="#7F7F7F" p-id="11242"></path></svg>