<?xml version="1.0" standalone="no"?><!DOCTYPE svg PUBLIC "-//W3C//DTD SVG 1.1//EN" "http://www.w3.org/Graphics/SVG/1.1/DTD/svg11.dtd"><svg t="1581589552088" class="icon" viewBox="0 0 1025 1024" version="1.1" xmlns="http://www.w3.org/2000/svg" p-id="14533" xmlns:xlink="http://www.w3.org/1999/xlink" width="32.03125" height="32"><defs><style type="text/css"></style></defs><path d="M350.775834 1024c-1.963322 0-3.903124-0.201445-5.819408-0.551162-10.149963-2.017517-18.514531-8.853353-22.441174-18.296725l-91.648258-220.224345-211.455865-83.236653c-9.60596-3.763033-16.613586-12.066247-18.746653-22.20803-2.141248-10.102925 0.962232-20.532048 8.303214-27.880188l64.909251-64.892889c5.695678-5.695678 13.586799-8.962767 21.64971-8.962767l2.13409 0.069534 157.751863 11.918998 140.060495-140.036976L50.340601 281.012665c-8.853353-4.298856-15.115531-12.686943-16.752655-22.424813-1.591108-9.76957 1.606447-19.732404 8.550674-26.677654l63.458233-63.458233c5.672159-5.687497 13.602137-8.946406 21.758102-8.946406 1.85493 0 3.708837 0.162588 5.532067 0.512304l470.657255 89.289205L819.740746 33.117758C840.800437 12.065224 870.845392 0 902.178777 0c31.325204 0 61.378339 12.066247 82.438031 33.1106l5.765212 5.773392c45.439645 45.447826 45.463164 119.420055 0.062376 164.898558L775.829833 418.372571l93.875401 466.591543c2.032856 10.094745-1.102323 20.438995-8.388087 27.678743l-64.870393 64.877551c-5.726354 5.702836-13.57146 8.969925-21.533138 8.969925-1.645304 0-3.313105-0.140091-4.958409-0.419251-9.521087-1.498055-17.900993-7.565946-22.347098-16.225012L574.949318 633.638506 438.75309 769.819396l13.191067 150.209436c0.760787 9.055821-2.467445 17.909174-8.861534 24.303262l-70.689801 70.697981C366.744182 1020.73291 358.861242 1024 350.775834 1024zM265.334535 732.673761c7.697857 3.057464 13.904816 9.148874 17.039995 16.721978l79.054369 190.001464 28.299439-28.27592-13.191067-150.186939c-0.760787-9.04764 2.467445-17.900993 8.853353-24.303262l175.940196-175.948377c5.680339-5.680339 13.57146-8.931068 21.633349-8.931068 1.56759 0 3.157675 0.116572 4.733446 0.365055 9.637659 1.505213 18.041084 7.581284 22.471851 16.248531l172.65061 336.191203 23.635528-23.62019L712.581225 414.352874c-2.048194-10.064068 1.078804-20.407296 8.372748-27.670563l226.192024-226.153167c21.587334-21.594492 21.594492-56.768624 0.008181-78.410154l-5.758054-5.765212c-9.932157-9.90148-24.217367-15.588977-39.200987-15.588977-14.976462 0-29.261671 5.687497-39.193829 15.604316l-227.643042 227.634861c-5.641482 5.711016-13.532603 8.985264-21.626191 8.985264-1.924464 0-3.848928-0.178949-5.758054-0.551162l-470.564201-89.282047-21.719244 21.719244 345.138632 168.592056c8.861534 4.322375 15.123711 12.710462 16.752655 22.432994 1.582928 9.754231-1.621785 19.717066-8.558855 26.677654L288.737941 642.865095c-5.626143 5.702836-13.454888 8.978106-21.462581 8.978106-0.869179 0-1.738358-0.023519-2.614694-0.101234l-157.457364-11.895479L85.250912 661.790696 265.334535 732.673761z" p-id="14534" fill="#87b774"></path></svg>